# xmcd
#
# Track frame offsets: 
#        150
#        10500
#        20962
#        35602
#        48025
#        61854
#        72697
#        84199
#        95202
#        106652
#        117920
#        129601
#        141975
#        154862
#        167519
#        177571
#        186774
#        197454
#        208886
#        219375
#        234552
#        248652
#
# Disc length: 3477 seconds
#
# Revision: 0
# Processed by: cddbd v1.5.2PL0 Copyright (c) Steve Scherf et al.
# Submitted via: ExactAudioCopyFreeDBPlugin 1.0
#
DISCID=350d9316
DTITLE=Charley Pride - The Best Of Charley Pride Vols. I, II and III - G
DTITLE=reatest Hits
DYEAR=2018
DGENRE=Country
TTITLE0=Just Between You And Me
TTITLE1=Does My Ring Hurt Your Finger
TTITLE2=Kaw-Liga
TTITLE3=The Snakes Crawl At Night
TTITLE4=All I Have To Offer You (Is Me)
TTITLE5=The Easy Part's Over
TTITLE6=The Day The World Stood Still
TTITLE7=I Know One
TTITLE8=Gone, On The Other Hand
TTITLE9=Before I Met You
TTITLE10=Too Hard To Say I'm Sorry
TTITLE11=Let The Chips Fall
TTITLE12=A Place For The Lonesome
TTITLE13=I'd Rather Love You
TTITLE14=Is Anybody Goin' To San Antone
TTITLE15=Kiss An Angel Good Mornin'
TTITLE16=(In My World) You Don't Belong
TTITLE17=(There's Still) Someone I Can't Forget
TTITLE18=I'm Just Me
TTITLE19=Let Me Live
TTITLE20=(I'm So) Afraid Of Losing You Again
TTITLE21=You'll Still Be The One
EXTD=
EXTT0=
EXTT1=
EXTT2=
EXTT3=
EXTT4=
EXTT5=
EXTT6=
EXTT7=
EXTT8=
EXTT9=
EXTT10=
EXTT11=
EXTT12=
EXTT13=
EXTT14=
EXTT15=
EXTT16=
EXTT17=
EXTT18=
EXTT19=
EXTT20=
EXTT21=
PLAYORDER=
